<svg version="1.1" id="Layer_1" xmlns="http://www.w3.org/2000/svg" xmlns:xlink="http://www.w3.org/1999/xlink" x="0px" y="0px"
	 width="100%" viewBox="0 0 1011 1069" enable-background="new 0 0 1011 1069" xml:space="preserve">
<path fill="#43489C" opacity="1.000000" stroke="none" 
	d="
M345.000000,1070.000000 
	C230.434311,1070.000000 115.868629,1070.000000 1.000000,1070.000000 
	C1.000000,1019.312866 1.000000,968.625061 1.344431,917.435181 
	C3.384964,915.390381 5.331782,914.046082 6.735477,912.272034 
	C14.356307,902.640320 21.714687,892.799438 29.401461,883.221558 
	C47.997364,860.051086 66.788437,837.037170 85.381302,813.864258 
	C103.453476,791.340271 121.353233,768.678040 139.373550,746.112366 
	C152.212265,730.035217 165.125290,714.017456 178.450409,697.857666 
	C196.678650,697.744446 213.393600,694.192505 228.330719,683.117249 
	C225.379105,677.493591 222.569809,672.141052 220.196381,667.619019 
	C212.978516,668.777588 206.497757,669.817810 200.165680,670.561768 
	C212.975708,654.437988 225.631119,638.605774 238.328781,622.807556 
	C238.688278,622.360291 239.498108,622.274963 240.331604,622.358521 
	C243.014084,646.964905 245.462967,671.233521 247.903366,695.418335 
	C260.981598,695.418335 273.264801,695.418335 285.702820,695.418335 
	C287.185852,682.100159 288.639343,669.047180 290.515564,655.995728 
	C299.348969,655.298157 307.770935,654.710815 316.166840,653.864807 
	C322.905457,653.185730 323.587280,653.943604 324.065216,660.725708 
	C324.820526,671.442749 326.049072,682.126099 327.046631,692.826599 
	C327.378876,696.390259 329.694550,697.671265 332.827637,697.707397 
	C342.713348,697.821655 352.602203,697.910706 362.485352,697.743896 
	C364.044373,697.717651 365.580139,696.315002 367.118286,695.392578 
	C367.109894,695.236511 367.395203,695.108826 367.703491,694.923950 
	C368.411743,688.833191 368.811737,682.927307 369.167206,676.608887 
	C369.340698,675.129761 369.558716,674.063232 370.038574,672.806213 
	C370.871124,670.899841 371.781555,669.217957 371.957214,667.462585 
	C373.063354,656.408875 374.177704,645.350586 374.937103,634.269653 
	C375.375153,627.877991 375.152618,621.441040 375.190063,614.677979 
	C375.283844,613.891235 375.414948,613.451111 375.840424,612.828613 
	C377.597748,602.045166 379.137115,591.453735 380.480713,580.837585 
	C380.928497,577.299744 378.341949,576.096008 375.450562,576.082214 
	C357.155365,575.994690 338.859497,576.019470 320.563965,576.060913 
	C317.282684,576.068359 315.774811,577.809448 316.011749,581.167175 
	C316.419922,586.951233 316.184235,592.839600 317.222900,598.499939 
	C317.930206,602.354370 315.240356,607.480225 320.715363,610.374146 
	C320.828796,611.497742 320.830719,612.256775 320.627045,613.352600 
	C318.928467,615.990234 322.101562,620.949280 316.689056,620.903015 
	C310.729889,620.852112 304.765594,620.349609 298.829376,619.776306 
	C297.905762,619.687134 296.402802,618.184937 296.386902,617.313904 
	C296.284424,611.707275 296.233398,606.069519 296.716522,600.489685 
	C297.383118,592.790955 298.536774,585.134399 299.661835,575.997986 
	C291.182495,575.997986 283.610870,575.997986 276.186768,575.697144 
	C294.403473,552.602173 312.434387,529.777588 330.553345,507.023163 
	C346.706085,486.737946 362.941345,466.518341 379.205811,446.322632 
	C380.051788,445.272217 381.513153,444.717438 382.850494,444.338928 
	C385.049744,464.423309 387.172180,484.092560 389.038635,503.786072 
	C389.348572,507.056549 390.526947,508.059387 393.635803,508.030701 
	C401.952209,507.954010 410.273041,508.006866 418.587402,508.205566 
	C422.807892,508.306427 424.384369,506.340179 424.759369,502.331207 
	C426.663696,481.972198 428.807465,461.635559 430.703796,441.275848 
	C431.819580,429.296570 431.662903,429.370148 443.381104,432.045288 
	C448.588501,433.234100 453.893616,433.994904 459.803558,435.067841 
	C458.806091,425.061676 457.651978,416.175781 457.145050,407.253113 
	C456.894714,402.847351 455.309875,401.741669 451.075073,401.813080 
	C439.107941,402.014771 427.132629,401.731781 415.330139,401.378998 
	C416.710602,399.533386 417.885498,397.919464 419.137970,396.368195 
	C431.041260,381.625092 443.022400,366.944305 454.853271,352.143372 
	C468.241333,335.394409 481.482025,318.527771 494.817230,301.736481 
	C503.600708,290.676544 512.436707,279.658325 521.251526,268.623352 
	C528.410034,259.662018 535.538208,250.676270 542.739990,241.749802 
	C556.098816,225.191696 569.577820,208.729935 582.864502,192.114258 
	C595.944153,175.757477 608.766663,159.195053 621.847229,142.839020 
	C640.426819,119.607056 659.172241,96.507820 677.784119,73.301628 
	C691.719299,55.926682 705.632324,38.532780 719.395874,21.022184 
	C724.497559,14.531739 729.145325,7.684541 734.000000,1.000009 
	C826.576111,1.000000 919.152222,1.000000 1012.000000,1.000000 
	C1012.000000,57.353935 1012.000000,113.708313 1011.657898,170.579651 
	C1010.565369,171.712219 1009.649902,172.205154 1009.088379,172.961060 
	C987.011108,202.683807 964.935730,232.408051 942.927063,262.181519 
	C926.844238,283.938354 910.860535,305.768341 894.821350,327.557434 
	C884.784241,341.192810 874.793884,354.863342 864.656921,368.424164 
	C856.113220,379.853668 847.388245,391.147614 838.396973,402.385223 
	C837.740967,402.146423 837.431580,401.916748 837.122253,401.916840 
	C820.320862,401.922455 803.519470,401.977753 786.718201,401.944519 
	C783.400208,401.937958 783.399475,403.984985 783.651917,406.297302 
	C784.338135,412.583069 785.152222,418.856232 785.748901,425.150177 
	C787.158569,440.019165 788.471375,454.897339 789.562927,469.987366 
	C784.625488,476.326599 780.030212,482.515137 775.242310,488.550903 
	C772.134277,492.469025 768.745361,496.164368 765.367676,499.567932 
	C768.330872,468.396301 771.375305,437.612885 774.529968,406.840790 
	C774.906555,403.167358 773.852478,401.759308 769.995117,401.807831 
	C755.172913,401.994354 740.343994,402.122833 725.525513,401.846405 
	C720.540588,401.753357 719.674866,403.615509 720.116211,408.036407 
	C723.239197,439.320953 726.250671,470.617065 729.130737,501.924896 
	C729.550293,506.485809 731.362732,508.277771 735.981689,508.181274 
	C743.620728,508.021698 751.269958,508.351196 758.952026,508.823303 
	C758.642883,510.250854 758.545471,511.511139 757.911621,512.380188 
	C752.169739,520.253052 746.329834,528.054504 740.526733,535.882874 
	C731.277893,548.359558 722.075623,560.871155 712.741028,573.283325 
	C711.524780,574.900452 709.641174,576.015686 707.662476,577.416687 
	C687.102478,577.493530 666.944580,577.671387 646.792480,577.410034 
	C642.795105,577.358276 641.359985,578.835571 640.121033,582.195679 
	C634.598877,597.173584 628.857483,612.070740 623.185059,626.993164 
	C622.284058,629.363525 621.331177,631.714294 619.934204,635.263245 
	C612.921875,616.819092 606.316895,599.807800 600.046570,582.674011 
	C598.653137,578.866638 597.075928,577.290710 592.707764,577.361206 
	C573.720703,577.667725 554.726013,577.497437 535.734070,577.500122 
	C532.280212,577.500671 528.826416,577.500183 525.019470,577.500183 
	C528.299133,617.180420 531.530823,656.280151 534.757080,695.313843 
	C543.606995,695.313843 551.833557,695.313843 560.326660,695.313843 
	C562.243713,672.532166 564.129395,650.122803 566.015137,627.713501 
	C567.318909,628.635132 567.787842,629.630066 568.181152,630.654053 
	C575.986816,650.976074 583.886597,671.263184 591.478516,691.664795 
	C592.706604,694.965088 594.255737,695.854187 597.574829,695.788391 
	C605.388245,695.633606 613.210327,695.918152 620.969116,696.365967 
	C608.596069,713.607239 596.386841,730.584412 583.942688,747.387512 
	C569.414001,767.005249 554.601807,786.412842 540.055786,806.017883 
	C522.244629,830.023865 504.616730,854.165710 486.847107,878.202637 
	C459.216309,915.578918 431.506134,952.896545 403.884033,990.279236 
	C391.748322,1006.703186 379.785126,1023.254456 367.669586,1039.693237 
	C360.185120,1049.848633 352.561279,1059.901245 345.000000,1070.000000 
M418.855621,684.888184 
	C418.855621,684.888184 418.760590,684.899841 419.468445,684.561035 
	C419.930573,682.836182 420.392700,681.111328 420.766602,679.146301 
	C420.766602,679.146301 420.979858,679.004883 421.796875,678.858032 
	C435.463715,678.269775 449.127075,677.468079 462.799866,677.246033 
	C466.142853,677.191772 469.516693,679.036377 473.041626,680.424133 
	C473.041626,680.424133 473.047180,680.871948 473.019104,681.708984 
	C474.963348,686.139771 476.907623,690.570557 479.547882,695.489563 
	C493.571625,695.489563 507.595367,695.489563 521.985352,695.489563 
	C511.312744,657.264771 500.774170,619.865295 490.540741,582.382507 
	C489.403992,578.218811 487.595703,577.390076 483.700317,577.426880 
	C464.213928,577.611084 444.723663,577.621155 425.237671,577.415771 
	C421.133667,577.372498 419.225922,578.335144 418.060394,582.631348 
	C409.579712,613.891785 400.766144,645.061768 392.075653,676.265320 
	C390.316742,682.580750 388.633698,688.917297 386.793732,695.693176 
	C392.996826,695.693176 398.538300,695.183594 403.945740,695.817444 
	C411.309174,696.680603 416.410034,694.937927 418.387878,686.571167 
	C418.535187,685.979431 418.682495,685.387756 418.855621,684.888184 
M569.796509,412.703369 
	C566.161743,410.414032 562.732056,407.673370 558.856995,405.912903 
	C541.334656,397.952545 522.992065,397.774628 504.538483,401.410217 
	C482.439636,405.763947 466.878052,421.552643 464.635284,442.446716 
	C463.673798,451.404053 463.866364,460.671783 464.966583,469.622498 
	C466.872955,485.131927 475.573364,496.362030 489.914948,502.623016 
	C511.453918,512.026123 533.521729,512.424683 555.561096,504.612122 
	C571.125977,499.094635 582.052734,488.612518 585.217346,471.903259 
	C586.654419,464.315582 587.130981,456.380280 586.790588,448.657867 
	C586.178101,434.759705 581.494934,422.369720 569.796509,412.703369 
M620.504089,508.022430 
	C625.669617,508.014221 630.835388,507.973999 636.000610,508.009888 
	C639.068604,508.031189 640.359314,506.820160 640.483459,503.533386 
	C640.747070,496.550751 641.540405,489.589691 642.018372,482.613037 
	C642.287476,478.686371 644.234436,477.116638 648.164368,477.181885 
	C655.650452,477.306122 663.144897,477.261047 670.629517,477.054626 
	C680.452515,476.783722 689.485596,473.957092 698.134583,469.135773 
	C714.653870,459.927185 717.955750,436.856598 711.639038,422.966858 
	C705.012573,408.395905 692.468079,402.511627 677.430725,402.202362 
	C651.445557,401.667999 625.443237,401.975647 599.448303,401.895660 
	C596.318665,401.886017 594.873047,403.017090 595.219971,406.399506 
	C598.223816,435.688965 601.159180,464.985443 604.085205,494.282806 
	C605.457092,508.018738 605.427612,508.021667 620.504089,508.022430 
z"/>
<path fill="#162C77" opacity="1.000000" stroke="none" 
	d="
M178.005188,697.973206 
	C165.125290,714.017456 152.212265,730.035217 139.373550,746.112366 
	C121.353233,768.678040 103.453476,791.340271 85.381302,813.864258 
	C66.788437,837.037170 47.997364,860.051086 29.401461,883.221558 
	C21.714687,892.799438 14.356307,902.640320 6.735477,912.272034 
	C5.331782,914.046082 3.384964,915.390381 1.344431,916.966553 
	C1.000000,611.747681 1.000000,306.495300 1.000000,1.000000 
	C245.020844,1.000000 489.041748,1.000000 733.531372,1.000009 
	C729.145325,7.684541 724.497559,14.531739 719.395874,21.022184 
	C705.632324,38.532780 691.719299,55.926682 677.784119,73.301628 
	C659.172241,96.507820 640.426819,119.607056 621.847229,142.839020 
	C608.766663,159.195053 595.944153,175.757477 582.864502,192.114258 
	C569.577820,208.729935 556.098816,225.191696 542.739990,241.749802 
	C535.538208,250.676270 528.410034,259.662018 521.251526,268.623352 
	C512.436707,279.658325 503.600708,290.676544 494.817230,301.736481 
	C481.482025,318.527771 468.241333,335.394409 454.853271,352.143372 
	C443.022400,366.944305 431.041260,381.625092 419.137970,396.368195 
	C417.885498,397.919464 416.710602,399.533386 414.848816,401.486877 
	C396.567657,401.892059 378.937347,401.951904 361.307159,401.938812 
	C358.791656,401.936920 356.602692,401.994598 356.316071,405.262817 
	C355.464661,414.972198 354.564941,424.677368 353.616638,435.127258 
	C359.245758,434.061798 364.424622,433.185699 369.556610,432.089966 
	C383.171875,429.183014 383.656799,429.589264 382.687988,443.931885 
	C381.513153,444.717438 380.051788,445.272217 379.205811,446.322632 
	C362.941345,466.518341 346.706085,486.737946 330.553345,507.023163 
	C312.434387,529.777588 294.403473,552.602173 275.968994,575.860107 
	C275.396332,576.614624 275.188965,576.905212 274.567383,577.289612 
	C261.916840,577.350403 249.680527,577.317444 237.100189,577.211365 
	C236.667328,578.792236 236.578491,580.446228 236.607498,582.452393 
	C236.767059,583.543823 236.808777,584.283203 236.701782,585.322144 
	C236.811371,587.449097 237.069687,589.276428 237.453354,591.479126 
	C237.658829,592.901794 237.738937,593.949097 237.670578,595.227051 
	C237.681061,596.305237 237.840012,597.152710 238.097961,598.416870 
	C238.830643,606.562683 239.464310,614.291748 240.097961,622.020813 
	C239.498108,622.274963 238.688278,622.360291 238.328781,622.807556 
	C225.631119,638.605774 212.975708,654.437988 199.737137,670.645752 
	C187.735123,671.057556 180.000626,665.340515 175.241867,655.333374 
	C170.924042,646.253357 170.831406,636.521423 172.463638,626.946045 
	C175.429855,609.544861 186.884033,601.338562 204.578583,603.387817 
	C209.491333,603.956787 214.344635,605.039001 219.601379,605.950928 
	C221.616806,601.802063 223.565155,597.425476 225.841003,593.226501 
	C227.539948,590.091980 227.011169,588.340637 223.784622,586.554199 
	C207.777939,577.691833 190.765427,573.417603 172.496658,575.219971 
	C153.854462,577.059143 138.169876,584.546570 127.938828,600.909912 
	C120.704262,612.480713 119.394951,625.549377 119.664215,638.873169 
	C120.452408,677.875488 146.513031,695.732483 178.005188,697.973206 
M166.536301,385.252716 
	C162.912827,383.726501 159.314514,382.613983 155.474228,386.346619 
	C155.326294,387.242004 155.178360,388.137390 154.520370,389.679596 
	C154.346832,391.478943 154.028076,393.277893 154.022827,395.077728 
	C153.982101,409.021210 154.115540,422.966064 153.972473,436.908203 
	C153.816055,452.149475 153.377182,467.387909 153.226227,482.629181 
	C153.215805,483.682190 154.576782,484.748779 155.869476,485.864655 
	C156.238159,485.962555 156.606842,486.060455 157.359894,486.678467 
	C160.021622,488.171783 162.727936,490.361908 165.728851,486.041931 
	C166.526932,485.681091 167.325027,485.320251 168.700790,484.610077 
	C169.329102,483.677094 170.518860,482.732971 170.500656,481.812744 
	C170.264099,469.853790 169.951874,457.894104 169.435684,445.944244 
	C169.270782,442.127014 170.039474,439.752869 174.462936,439.966431 
	C177.620224,440.118835 180.790741,439.972565 183.954300,440.024109 
	C189.124100,440.108368 190.503540,438.785004 189.899536,433.609985 
	C189.677948,431.711609 188.664078,429.905701 187.666672,427.688263 
	C187.428787,427.449707 187.190887,427.211151 186.695709,426.243011 
	C183.189697,425.894531 179.658234,425.103149 176.183701,425.302704 
	C171.126419,425.593231 170.056046,425.018860 170.014832,419.760956 
	C169.944519,410.790771 170.105682,401.817322 169.911819,392.850800 
	C169.869583,390.897003 168.741577,388.966644 167.876053,386.519562 
	C167.585464,386.296509 167.294876,386.073456 166.536301,385.252716 
M269.406677,521.712036 
	C280.761078,521.204712 292.006042,520.247742 301.986938,513.958008 
	C316.580017,504.761810 316.260284,486.545715 301.365936,477.831818 
	C289.646484,470.975372 276.708618,470.362122 263.665619,470.603088 
	C254.138992,470.779083 244.734604,472.033813 236.050125,476.323944 
	C229.907761,479.358276 224.871841,483.559753 223.027283,490.570862 
	C220.169952,501.431427 225.242798,510.929138 236.762589,516.185852 
	C246.831696,520.780640 257.572418,521.655273 269.406677,521.712036 
M135.504181,433.860779 
	C137.141495,417.008423 129.881393,404.654541 114.526550,398.164856 
	C100.641151,392.296173 81.767067,396.588135 72.493828,407.723053 
	C63.795685,418.167419 62.401085,433.982178 69.155441,445.580688 
	C76.808388,458.722260 91.230118,464.727661 108.386879,461.917084 
	C122.051567,459.678589 132.735367,448.874268 135.504181,433.860779 
M299.952301,386.693665 
	C299.952301,391.644135 299.952301,396.594635 299.952301,401.989563 
	C286.863953,401.989563 274.447906,401.989563 262.019257,401.989563 
	C262.019257,405.503998 262.019257,408.553436 262.019257,412.145294 
	C274.748840,412.145294 287.146423,412.145294 299.584839,412.145294 
	C299.584839,416.968994 299.584839,421.234467 299.584839,425.953339 
	C286.917084,425.953339 274.502167,425.953339 262.018036,425.953339 
	C262.018036,429.466339 262.018036,432.508820 262.018036,436.080750 
	C274.759644,436.080750 287.151093,436.080750 300.002075,436.080750 
	C300.002075,447.360535 300.002075,458.108765 300.002075,468.892151 
	C304.229889,468.892151 307.975800,468.892151 311.833313,468.892151 
	C311.833313,441.198792 311.833313,413.793121 311.833313,386.071808 
	C307.948334,386.071808 304.318817,386.071808 299.952301,386.693665 
M208.698380,400.749298 
	C208.698380,420.392151 208.698380,440.035004 208.698380,460.012970 
	C232.631577,460.140198 256.170471,460.686646 279.670197,454.982513 
	C278.991547,451.321564 278.412079,448.195496 277.833710,445.075470 
	C258.669403,448.875336 240.039062,450.069092 220.911972,449.747223 
	C220.911972,430.925598 220.911972,412.806854 220.911972,394.418640 
	C216.805130,394.418640 213.033890,394.418640 208.697922,394.418640 
	C208.697922,396.229126 208.697922,398.021545 208.698380,400.749298 
M95.964600,507.513000 
	C95.964600,497.083466 95.964600,486.653961 95.964600,476.080383 
	C91.494606,476.080383 87.588425,476.080383 83.641724,476.080383 
	C83.641724,490.413849 83.641724,504.458679 83.641724,518.516724 
	C113.900414,518.516724 143.763977,518.516724 173.618820,518.516724 
	C173.618820,515.088623 173.618820,512.028015 173.618820,508.646942 
	C169.984253,508.646942 166.671371,508.657776 163.358582,508.645203 
	C141.063766,508.560669 118.768959,508.471191 95.964600,507.513000 
z"/>
<path fill="#162C77" opacity="1.000000" stroke="none" 
	d="
M765.482300,499.959534 
	C768.745361,496.164368 772.134277,492.469025 775.242310,488.550903 
	C780.030212,482.515137 784.625488,476.326599 789.714966,470.415314 
	C791.160400,481.065521 792.232666,491.499664 793.205750,501.943054 
	C793.560547,505.750885 794.210388,508.482758 799.301270,508.170319 
	C807.102051,507.691589 814.964600,507.788300 822.779358,508.131775 
	C827.325195,508.331573 828.729614,506.882416 828.940247,502.304077 
	C829.341797,493.577393 830.554688,484.888062 831.544556,475.052948 
	C833.834045,476.967987 835.265808,478.027374 836.537659,479.252747 
	C843.012512,485.491119 850.052307,491.272583 855.736267,498.168579 
	C862.433899,506.294434 870.238159,509.289825 880.499939,508.139618 
	C886.807617,507.432648 893.259094,508.008789 900.308777,508.008789 
	C899.414856,506.220978 899.028625,505.329193 898.543152,504.495117 
	C888.245728,486.802795 878.014404,469.071045 867.555481,451.474579 
	C865.788757,448.502228 865.540100,446.355652 867.555359,443.408875 
	C874.506836,433.244263 881.222412,422.917358 887.957764,412.606506 
	C890.046021,409.409760 891.911560,406.067505 894.353271,402.002472 
	C884.112549,402.002472 875.131836,401.906555 866.157288,402.099487 
	C864.708313,402.130676 862.943115,403.124329 861.910828,404.223846 
	C856.789429,409.678955 851.889526,415.341217 846.861938,420.885406 
	C843.576599,424.508362 840.206360,428.054382 836.874207,431.634888 
	C836.485535,431.437317 836.096863,431.239777 835.708191,431.042236 
	C836.646057,422.510071 837.583923,413.977905 838.607788,405.404175 
	C838.693726,405.362640 838.557983,405.037476 838.512146,404.717102 
	C838.558716,403.765015 838.651062,403.133270 838.743469,402.501526 
	C847.388245,391.147614 856.113220,379.853668 864.656921,368.424164 
	C874.793884,354.863342 884.784241,341.192810 894.821350,327.557434 
	C910.860535,305.768341 926.844238,283.938354 942.927063,262.181519 
	C964.935730,232.408051 987.011108,202.683807 1009.088379,172.961060 
	C1009.649902,172.205154 1010.565369,171.712219 1011.657898,171.048309 
	C1012.000000,470.583008 1012.000000,770.166016 1012.000000,1070.000000 
	C789.979187,1070.000000 567.958252,1070.000000 345.468689,1070.000000 
	C352.561279,1059.901245 360.185120,1049.848633 367.669586,1039.693237 
	C379.785126,1023.254456 391.748322,1006.703186 403.884033,990.279236 
	C431.506134,952.896545 459.216309,915.578918 486.847107,878.202637 
	C504.616730,854.165710 522.244629,830.023865 540.055786,806.017883 
	C554.601807,786.412842 569.414001,767.005249 583.942688,747.387512 
	C596.386841,730.584412 608.596069,713.607239 621.333862,696.263550 
	C623.064270,694.912354 624.842590,694.283142 625.576111,693.038269 
	C627.047424,690.541443 627.947815,687.708252 629.400757,684.918213 
	C632.759399,680.948364 635.744751,677.028442 638.855591,673.210693 
	C643.821350,667.116455 648.870544,661.090210 653.936707,655.453491 
	C654.387390,657.948120 654.938293,660.008545 655.158508,662.103699 
	C656.184753,671.865479 657.016479,681.649292 658.194214,691.391846 
	C658.377869,692.911560 659.961243,695.478333 660.944031,695.500549 
	C673.381287,695.781982 685.827209,695.685669 698.468506,695.685669 
	C698.667480,694.054932 698.841431,692.935486 698.936096,691.809387 
	C700.539490,672.740112 702.191223,653.674683 703.712219,634.598877 
	C705.232971,615.525879 706.620667,596.442383 708.066711,577.363464 
	C709.641174,576.015686 711.524780,574.900452 712.741028,573.283325 
	C722.075623,560.871155 731.277893,548.359558 740.526733,535.882874 
	C746.329834,528.054504 752.169739,520.253052 757.911621,512.380188 
	C758.545471,511.511139 758.642883,510.250854 759.359375,508.679993 
	C763.090149,508.333405 765.108765,507.155945 764.842468,503.357483 
	C764.764404,502.245270 765.253235,501.093292 765.482300,499.959534 
M834.843262,585.639221 
	C828.145874,580.887024 820.568115,578.151184 812.490540,578.055054 
	C781.517212,577.686646 750.539246,577.710205 719.562927,577.614502 
	C719.145813,577.613220 718.727722,577.964050 718.183899,578.206909 
	C722.061951,617.330261 725.932007,656.372864 729.803528,695.429810 
	C742.792725,695.429810 755.228333,695.429810 767.800659,695.429810 
	C768.941345,684.099487 770.054504,673.042786 771.213867,661.527222 
	C779.631104,661.527222 787.752014,661.560120 795.872498,661.519287 
	C807.304321,661.461853 818.252136,659.319092 828.818481,654.724915 
	C857.725647,642.156433 857.266724,598.606262 834.843262,585.639221 
z"/>
<path fill="#FDFDFE" opacity="1.000000" stroke="none" 
	d="
M707.662476,577.416687 
	C706.620667,596.442383 705.232971,615.525879 703.712219,634.598877 
	C702.191223,653.674683 700.539490,672.740112 698.936096,691.809387 
	C698.841431,692.935486 698.667480,694.054932 698.468506,695.685669 
	C685.827209,695.685669 673.381287,695.781982 660.944031,695.500549 
	C659.961243,695.478333 658.377869,692.911560 658.194214,691.391846 
	C657.016479,681.649292 656.184753,671.865479 655.158508,662.103699 
	C654.938293,660.008545 654.387390,657.948120 654.054321,655.004272 
	C653.398621,645.308167 652.677490,636.479492 651.928955,627.315430 
	C651.110962,627.862122 650.709045,627.977600 650.619934,628.212036 
	C643.425598,647.140076 636.255615,666.077332 629.083801,685.013855 
	C627.947815,687.708252 627.047424,690.541443 625.576111,693.038269 
	C624.842590,694.283142 623.064270,694.912354 621.393738,695.922485 
	C613.210327,695.918152 605.388245,695.633606 597.574829,695.788391 
	C594.255737,695.854187 592.706604,694.965088 591.478516,691.664795 
	C583.886597,671.263184 575.986816,650.976074 568.181152,630.654053 
	C567.787842,629.630066 567.318909,628.635132 566.015137,627.713501 
	C564.129395,650.122803 562.243713,672.532166 560.326660,695.313843 
	C551.833557,695.313843 543.606995,695.313843 534.757080,695.313843 
	C531.530823,656.280151 528.299133,617.180420 525.019470,577.500183 
	C528.826416,577.500183 532.280212,577.500671 535.734070,577.500122 
	C554.726013,577.497437 573.720703,577.667725 592.707764,577.361206 
	C597.075928,577.290710 598.653137,578.866638 600.046570,582.674011 
	C606.316895,599.807800 612.921875,616.819092 619.934204,635.263245 
	C621.331177,631.714294 622.284058,629.363525 623.185059,626.993164 
	C628.857483,612.070740 634.598877,597.173584 640.121033,582.195679 
	C641.359985,578.835571 642.795105,577.358276 646.792480,577.410034 
	C666.944580,577.671387 687.102478,577.493530 707.662476,577.416687 
z"/>
<path fill="#FDFDFE" opacity="1.000000" stroke="none" 
	d="
M236.850494,585.022522 
	C236.808777,584.283203 236.767059,583.543823 236.678650,582.025391 
	C236.902710,579.925659 237.173447,578.605103 237.444183,577.284485 
	C249.680527,577.317444 261.916840,577.350403 274.945801,577.439087 
	C282.825867,577.494751 289.913330,577.494751 297.488495,577.494751 
	C296.000702,592.876404 294.597626,607.381897 293.163147,622.212158 
	C302.865265,622.212158 312.228455,622.212158 321.986572,622.212158 
	C321.569733,618.890259 321.201202,615.953003 320.832642,613.015808 
	C320.830719,612.256775 320.828796,611.497742 320.756714,609.955566 
	C319.664734,598.802551 318.642944,588.432739 317.606232,577.911621 
	C338.387054,577.911621 358.446411,577.911621 378.756226,577.911621 
	C377.662628,589.868835 376.604340,601.439880 375.546082,613.010925 
	C375.414948,613.451111 375.283844,613.891235 375.087952,615.096375 
	C374.835754,617.847839 374.643707,619.833984 374.461700,621.820984 
	C372.899017,638.879456 371.338135,655.938110 369.776733,672.996704 
	C369.558716,674.063232 369.340698,675.129761 369.063660,677.020630 
	C368.468170,683.599548 367.931671,689.354187 367.395203,695.108826 
	C367.395203,695.108826 367.109894,695.236511 366.643127,695.431885 
	C353.928497,695.627197 341.680634,695.627197 329.235931,695.627197 
	C327.679077,680.417908 326.181274,665.785278 324.644684,650.773621 
	C313.386139,651.831665 302.637726,652.806519 291.905426,653.934937 
	C291.236481,654.005310 290.694122,655.279907 290.092865,655.994202 
	C288.639343,669.047180 287.185852,682.100159 285.702820,695.418335 
	C273.264801,695.418335 260.981598,695.418335 247.903366,695.418335 
	C245.462967,671.233521 243.014084,646.964905 240.331589,622.358521 
	C239.464310,614.291748 238.830643,606.562683 238.170471,598.041382 
	C238.035629,596.498169 237.927338,595.747253 237.819031,594.996338 
	C237.738937,593.949097 237.658829,592.901794 237.543060,591.107544 
	C237.288422,588.581177 237.069458,586.801880 236.850494,585.022522 
z"/>
<path fill="#FDFDFE" opacity="1.000000" stroke="none" 
	d="
M420.979858,679.004883 
	C420.979858,679.004883 420.766602,679.146301 420.535980,679.530762 
	C419.790436,681.576782 419.275513,683.238281 418.760590,684.899841 
	C418.760590,684.899841 418.855621,684.888184 418.607666,685.048828 
	C418.221436,685.809082 418.083130,686.408691 417.944824,687.008301 
	C416.410034,694.937927 411.309174,696.680603 403.945740,695.817444 
	C398.538300,695.183594 392.996826,695.693176 386.793732,695.693176 
	C388.633698,688.917297 390.316742,682.580750 392.075653,676.265320 
	C400.766144,645.061768 409.579712,613.891785 418.060394,582.631348 
	C419.225922,578.335144 421.133667,577.372498 425.237671,577.415771 
	C444.723663,577.621155 464.213928,577.611084 483.700317,577.426880 
	C487.595703,577.390076 489.403992,578.218811 490.540741,582.382507 
	C500.774170,619.865295 511.312744,657.264771 521.985352,695.489563 
	C507.595367,695.489563 493.571625,695.489563 479.174072,694.883789 
	C476.882538,689.809326 474.964874,685.340637 473.047180,680.871948 
	C473.047180,680.871948 473.041626,680.424133 472.941345,679.821716 
	C471.496643,678.137146 470.166077,676.134705 468.805786,676.114319 
	C454.031799,675.893066 439.252197,675.914246 424.477570,676.118164 
	C423.298584,676.134399 422.145172,677.999146 420.979858,679.004883 
M438.667847,650.733826 
	C446.046387,650.733826 453.424927,650.733826 461.629456,650.733826 
	C456.411621,637.526367 451.543182,625.203247 446.179749,611.627258 
	C440.999908,625.254822 436.296387,637.629150 431.315216,650.734009 
	C434.130890,650.734009 435.927765,650.734009 438.667847,650.733826 
z"/>
<path fill="#FA575B" opacity="1.000000" stroke="none" 
	d="
M570.055786,412.948975 
	C581.494934,422.369720 586.178101,434.759705 586.790588,448.657867 
	C587.130981,456.380280 586.654419,464.315582 585.217346,471.903259 
	C582.052734,488.612518 571.125977,499.094635 555.561096,504.612122 
	C533.521729,512.424683 511.453918,512.026123 489.914948,502.623016 
	C475.573364,496.362030 466.872955,485.131927 464.966583,469.622498 
	C463.866364,460.671783 463.673798,451.404053 464.635284,442.446716 
	C466.878052,421.552643 482.439636,405.763947 504.538483,401.410217 
	C522.992065,397.774628 541.334656,397.952545 558.856995,405.912903 
	C562.732056,407.673370 566.161743,410.414032 570.055786,412.948975 
M511.092377,472.115326 
	C511.665497,474.540680 512.124695,476.999908 512.833191,479.385040 
	C514.915283,486.394501 519.655212,490.181976 526.043457,490.084137 
	C531.149292,490.005951 535.971680,485.800812 537.611572,479.337921 
	C538.871948,474.370819 539.964600,469.285400 540.368774,464.192078 
	C541.305298,452.389313 541.106506,440.570923 537.023499,429.264130 
	C534.605835,422.569244 530.270630,419.709503 524.408813,419.987274 
	C518.566528,420.264069 515.084412,423.571411 512.984009,430.727753 
	C509.065735,444.078003 509.632385,457.641083 511.092377,472.115326 
z"/>
<path fill="#F9575B" opacity="1.000000" stroke="none" 
	d="
M838.396851,402.385193 
	C838.651062,403.133270 838.558716,403.765015 838.408813,404.754395 
	C838.351257,405.112030 838.521790,405.445740 838.521790,405.445740 
	C837.583923,413.977905 836.646057,422.510071 835.708191,431.042236 
	C836.096863,431.239777 836.485535,431.437317 836.874207,431.634888 
	C840.206360,428.054382 843.576599,424.508362 846.861938,420.885406 
	C851.889526,415.341217 856.789429,409.678955 861.910828,404.223846 
	C862.943115,403.124329 864.708313,402.130676 866.157288,402.099487 
	C875.131836,401.906555 884.112549,402.002472 894.353271,402.002472 
	C891.911560,406.067505 890.046021,409.409760 887.957764,412.606506 
	C881.222412,422.917358 874.506836,433.244263 867.555359,443.408875 
	C865.540100,446.355652 865.788757,448.502228 867.555481,451.474579 
	C878.014404,469.071045 888.245728,486.802795 898.543152,504.495117 
	C899.028625,505.329193 899.414856,506.220978 900.308777,508.008789 
	C893.259094,508.008789 886.807617,507.432648 880.499939,508.139618 
	C870.238159,509.289825 862.433899,506.294434 855.736267,498.168579 
	C850.052307,491.272583 843.012512,485.491119 836.537659,479.252747 
	C835.265808,478.027374 833.834045,476.967987 831.544556,475.052948 
	C830.554688,484.888062 829.341797,493.577393 828.940247,502.304077 
	C828.729614,506.882416 827.325195,508.331573 822.779358,508.131775 
	C814.964600,507.788300 807.102051,507.691589 799.301270,508.170319 
	C794.210388,508.482758 793.560547,505.750885 793.205750,501.943054 
	C792.232666,491.499664 791.160400,481.065521 789.975342,470.199768 
	C788.471375,454.897339 787.158569,440.019165 785.748901,425.150177 
	C785.152222,418.856232 784.338135,412.583069 783.651917,406.297302 
	C783.399475,403.984985 783.400208,401.937958 786.718201,401.944519 
	C803.519470,401.977753 820.320862,401.922455 837.122253,401.916840 
	C837.431580,401.916748 837.740967,402.146423 838.396851,402.385193 
z"/>
<path fill="#FA575B" opacity="1.000000" stroke="none" 
	d="
M620.005554,508.022339 
	C605.427612,508.021667 605.457092,508.018738 604.085205,494.282806 
	C601.159180,464.985443 598.223816,435.688965 595.219971,406.399506 
	C594.873047,403.017090 596.318665,401.886017 599.448303,401.895660 
	C625.443237,401.975647 651.445557,401.667999 677.430725,402.202362 
	C692.468079,402.511627 705.012573,408.395905 711.639038,422.966858 
	C717.955750,436.856598 714.653870,459.927185 698.134583,469.135773 
	C689.485596,473.957092 680.452515,476.783722 670.629517,477.054626 
	C663.144897,477.261047 655.650452,477.306122 648.164368,477.181885 
	C644.234436,477.116638 642.287476,478.686371 642.018372,482.613037 
	C641.540405,489.589691 640.747070,496.550751 640.483459,503.533386 
	C640.359314,506.820160 639.068604,508.031189 636.000610,508.009888 
	C630.835388,507.973999 625.669617,508.014221 620.005554,508.022339 
M670.848022,437.581207 
	C670.010254,434.959503 669.680176,432.007385 668.232483,429.782593 
	C664.875183,424.623291 654.681152,421.763763 649.332092,424.283508 
	C648.316528,424.761871 647.486938,426.547699 647.344177,427.817139 
	C646.474731,435.552429 645.728638,443.306183 645.210571,451.071716 
	C645.128174,452.306274 646.267883,454.650787 647.077209,454.761169 
	C658.144897,456.270172 669.944885,453.077698 670.848022,437.581207 
z"/>
<path fill="#FCFDFD" opacity="1.000000" stroke="none" 
	d="
M178.450394,697.857666 
	C146.513031,695.732483 120.452408,677.875488 119.664215,638.873169 
	C119.394951,625.549377 120.704262,612.480713 127.938828,600.909912 
	C138.169876,584.546570 153.854462,577.059143 172.496658,575.219971 
	C190.765427,573.417603 207.777939,577.691833 223.784622,586.554199 
	C227.011169,588.340637 227.539948,590.091980 225.841003,593.226501 
	C223.565155,597.425476 221.616806,601.802063 219.601379,605.950928 
	C214.344635,605.039001 209.491333,603.956787 204.578583,603.387817 
	C186.884033,601.338562 175.429855,609.544861 172.463638,626.946045 
	C170.831406,636.521423 170.924042,646.253357 175.241867,655.333374 
	C180.000626,665.340515 187.735123,671.057556 199.588440,670.942078 
	C206.497757,669.817810 212.978516,668.777588 220.196381,667.619019 
	C222.569809,672.141052 225.379105,677.493591 228.330719,683.117249 
	C213.393600,694.192505 196.678650,697.744446 178.450394,697.857666 
z"/>
<path fill="#F9575B" opacity="1.000000" stroke="none" 
	d="
M382.850494,444.338928 
	C383.656799,429.589264 383.171875,429.183014 369.556610,432.089966 
	C364.424622,433.185699 359.245758,434.061798 353.616638,435.127258 
	C354.564941,424.677368 355.464661,414.972198 356.316071,405.262817 
	C356.602692,401.994598 358.791656,401.936920 361.307159,401.938812 
	C378.937347,401.951904 396.567657,401.892059 414.679230,401.747681 
	C427.132629,401.731781 439.107941,402.014771 451.075073,401.813080 
	C455.309875,401.741669 456.894714,402.847351 457.145050,407.253113 
	C457.651978,416.175781 458.806091,425.061676 459.803558,435.067841 
	C453.893616,433.994904 448.588501,433.234100 443.381104,432.045288 
	C431.662903,429.370148 431.819580,429.296570 430.703796,441.275848 
	C428.807465,461.635559 426.663696,481.972198 424.759369,502.331207 
	C424.384369,506.340179 422.807892,508.306427 418.587402,508.205566 
	C410.273041,508.006866 401.952209,507.954010 393.635803,508.030701 
	C390.526947,508.059387 389.348572,507.056549 389.038635,503.786072 
	C387.172180,484.092560 385.049744,464.423309 382.850494,444.338928 
z"/>
<path fill="#FA575B" opacity="1.000000" stroke="none" 
	d="
M765.367676,499.567932 
	C765.253235,501.093292 764.764404,502.245270 764.842468,503.357483 
	C765.108765,507.155945 763.090149,508.333405 759.322327,508.331268 
	C751.269958,508.351196 743.620728,508.021698 735.981689,508.181274 
	C731.362732,508.277771 729.550293,506.485809 729.130737,501.924896 
	C726.250671,470.617065 723.239197,439.320953 720.116211,408.036407 
	C719.674866,403.615509 720.540588,401.753357 725.525513,401.846405 
	C740.343994,402.122833 755.172913,401.994354 769.995117,401.807831 
	C773.852478,401.759308 774.906555,403.167358 774.529968,406.840790 
	C771.375305,437.612885 768.330872,468.396301 765.367676,499.567932 
z"/>
<path fill="#484D97" opacity="1.000000" stroke="none" 
	d="
M375.840393,612.828613 
	C376.604340,601.439880 377.662628,589.868835 378.756226,577.911621 
	C358.446411,577.911621 338.387054,577.911621 317.606232,577.911621 
	C318.642944,588.432739 319.664734,598.802551 320.645203,609.590942 
	C315.240356,607.480225 317.930206,602.354370 317.222900,598.499939 
	C316.184235,592.839600 316.419922,586.951233 316.011749,581.167175 
	C315.774811,577.809448 317.282684,576.068359 320.563965,576.060913 
	C338.859497,576.019470 357.155365,575.994690 375.450562,576.082214 
	C378.341949,576.096008 380.928497,577.299744 380.480713,580.837585 
	C379.137115,591.453735 377.597748,602.045166 375.840393,612.828613 
z"/>
<path fill="#484D97" opacity="1.000000" stroke="none" 
	d="
M290.515564,655.995728 
	C290.694122,655.279907 291.236481,654.005310 291.905426,653.934937 
	C302.637726,652.806519 313.386139,651.831665 324.644684,650.773621 
	C326.181274,665.785278 327.679077,680.417908 329.235931,695.627197 
	C341.680634,695.627197 353.928497,695.627197 366.651550,695.587952 
	C365.580139,696.315002 364.044373,697.717651 362.485352,697.743896 
	C352.602203,697.910706 342.713348,697.821655 332.827637,697.707397 
	C329.694550,697.671265 327.378876,696.390259 327.046631,692.826599 
	C326.049072,682.126099 324.820526,671.442749 324.065216,660.725708 
	C323.587280,653.943604 322.905457,653.185730 316.166840,653.864807 
	C307.770935,654.710815 299.348969,655.298157 290.515564,655.995728 
z"/>
<path fill="#484D97" opacity="1.000000" stroke="none" 
	d="
M320.627045,613.352600 
	C321.201202,615.953003 321.569733,618.890259 321.986572,622.212158 
	C312.228455,622.212158 302.865265,622.212158 293.163147,622.212158 
	C294.597626,607.381897 296.000702,592.876404 297.488495,577.494751 
	C289.913330,577.494751 282.825867,577.494751 275.359985,577.345337 
	C275.188965,576.905212 275.396332,576.614624 275.821472,576.161011 
	C283.610870,575.997986 291.182495,575.997986 299.661835,575.997986 
	C298.536774,585.134399 297.383118,592.790955 296.716522,600.489685 
	C296.233398,606.069519 296.284424,611.707275 296.386902,617.313904 
	C296.402802,618.184937 297.905762,619.687134 298.829376,619.776306 
	C304.765594,620.349609 310.729889,620.852112 316.689056,620.903015 
	C322.101562,620.949280 318.928467,615.990234 320.627045,613.352600 
z"/>
<path fill="#484D97" opacity="1.000000" stroke="none" 
	d="
M370.038574,672.806213 
	C371.338135,655.938110 372.899017,638.879456 374.461700,621.820984 
	C374.643707,619.833984 374.835754,617.847839 375.125305,615.442871 
	C375.152618,621.441040 375.375153,627.877991 374.937103,634.269653 
	C374.177704,645.350586 373.063354,656.408875 371.957214,667.462585 
	C371.781555,669.217957 370.871124,670.899841 370.038574,672.806213 
z"/>
<path fill="#4D4695" opacity="1.000000" stroke="none" 
	d="
M421.388367,678.931458 
	C422.145172,677.999146 423.298584,676.134399 424.477570,676.118164 
	C439.252197,675.914246 454.031799,675.893066 468.805786,676.114319 
	C470.166077,676.134705 471.496643,678.137146 472.858704,679.613647 
	C469.516693,679.036377 466.142853,677.191772 462.799866,677.246033 
	C449.127075,677.468079 435.463715,678.269775 421.388367,678.931458 
z"/>
<path fill="#484D97" opacity="1.000000" stroke="none" 
	d="
M367.703461,694.923950 
	C367.931671,689.354187 368.468170,683.599548 369.108154,677.433167 
	C368.811737,682.927307 368.411743,688.833191 367.703461,694.923950 
z"/>
<path fill="#4D4695" opacity="1.000000" stroke="none" 
	d="
M473.033142,681.290466 
	C474.964874,685.340637 476.882538,689.809326 478.826050,694.639648 
	C476.907623,690.570557 474.963348,686.139771 473.033142,681.290466 
z"/>
<path fill="#4D4695" opacity="1.000000" stroke="none" 
	d="
M419.114502,684.730469 
	C419.275513,683.238281 419.790436,681.576782 420.580078,679.650879 
	C420.392700,681.111328 419.930573,682.836182 419.114502,684.730469 
z"/>
<path fill="#4D4695" opacity="1.000000" stroke="none" 
	d="
M418.166351,686.789734 
	C418.083130,686.408691 418.221436,685.809082 418.594757,685.002747 
	C418.682495,685.387756 418.535187,685.979431 418.166351,686.789734 
z"/>
<path fill="#F5F8FA" opacity="1.000000" stroke="none" 
	d="
M268.925812,521.712036 
	C257.572418,521.655273 246.831696,520.780640 236.762589,516.185852 
	C225.242798,510.929138 220.169952,501.431427 223.027283,490.570862 
	C224.871841,483.559753 229.907761,479.358276 236.050125,476.323944 
	C244.734604,472.033813 254.138992,470.779083 263.665619,470.603088 
	C276.708618,470.362122 289.646484,470.975372 301.365936,477.831818 
	C316.260284,486.545715 316.580017,504.761810 301.986938,513.958008 
	C292.006042,520.247742 280.761078,521.204712 268.925812,521.712036 
M286.461548,482.884155 
	C279.405731,482.051392 272.297516,480.261200 265.308167,480.643555 
	C257.660614,481.061951 249.959335,482.957977 242.596329,485.230316 
	C237.885269,486.684265 234.644394,490.603088 234.739136,496.220642 
	C234.832703,501.768707 237.926376,505.466095 242.791580,507.051636 
	C248.874710,509.034027 255.181107,510.837585 261.512543,511.438171 
	C272.134064,512.445679 282.812134,512.025513 292.651184,506.976562 
	C297.574066,504.450348 301.015289,500.674042 300.063416,494.702393 
	C298.925934,487.566528 293.260345,485.029114 286.461548,482.884155 
z"/>
<path fill="#F6F9FB" opacity="1.000000" stroke="none" 
	d="
M135.402496,434.280151 
	C132.735367,448.874268 122.051567,459.678589 108.386879,461.917084 
	C91.230118,464.727661 76.808388,458.722260 69.155441,445.580688 
	C62.401085,433.982178 63.795685,418.167419 72.493828,407.723053 
	C81.767067,396.588135 100.641151,392.296173 114.526550,398.164856 
	C129.881393,404.654541 137.141495,417.008423 135.402496,434.280151 
M121.973412,438.197906 
	C122.382042,436.765167 122.873428,435.350189 123.186005,433.896790 
	C125.393875,423.630981 120.864616,413.749786 111.855904,409.094574 
	C102.367119,404.191315 89.179924,406.423645 82.478752,414.067535 
	C75.866982,421.609497 75.176407,433.341919 80.905312,441.921844 
	C89.998795,455.540710 114.103630,455.030029 121.973412,438.197906 
z"/>
<path fill="#FAFCFD" opacity="1.000000" stroke="none" 
	d="
M300.320801,386.382751 
	C304.318817,386.071808 307.948334,386.071808 311.833313,386.071808 
	C311.833313,413.793121 311.833313,441.198792 311.833313,468.892151 
	C307.975800,468.892151 304.229889,468.892151 300.002075,468.892151 
	C300.002075,458.108765 300.002075,447.360535 300.002075,436.080750 
	C287.151093,436.080750 274.759644,436.080750 262.018036,436.080750 
	C262.018036,432.508820 262.018036,429.466339 262.018036,425.953339 
	C274.502167,425.953339 286.917084,425.953339 299.584839,425.953339 
	C299.584839,421.234467 299.584839,416.968994 299.584839,412.145294 
	C287.146423,412.145294 274.748840,412.145294 262.019257,412.145294 
	C262.019257,408.553436 262.019257,405.503998 262.019257,401.989563 
	C274.447906,401.989563 286.863953,401.989563 299.952301,401.989563 
	C299.952301,396.594635 299.952301,391.644135 300.320801,386.382751 
z"/>
<path fill="#F2F5F9" opacity="1.000000" stroke="none" 
	d="
M168.123123,484.959412 
	C167.325027,485.320251 166.526932,485.681091 164.936005,486.032745 
	C161.753952,486.068512 159.364731,486.113464 156.975525,486.158386 
	C156.606842,486.060455 156.238159,485.962555 155.576691,485.384186 
	C155.278214,473.249329 155.296051,461.594910 155.261581,449.940613 
	C155.201538,429.637939 155.109222,409.335388 155.030426,389.032776 
	C155.178360,388.137390 155.326294,387.242004 156.186707,386.169006 
	C160.267563,385.944427 163.635925,385.897400 167.004303,385.850372 
	C167.294876,386.073456 167.585464,386.296509 167.927032,387.234558 
	C167.977997,400.949738 167.977997,413.949921 167.977997,426.972595 
	C174.743057,426.972595 180.848038,426.972595 186.953003,426.972595 
	C187.190887,427.211151 187.428787,427.449707 187.774292,428.314270 
	C187.881897,431.702209 187.881897,434.464142 187.881897,437.793945 
	C180.991257,437.793945 174.635880,437.793945 168.123123,437.793945 
	C168.123123,453.899078 168.123123,469.429260 168.123123,484.959412 
z"/>
<path fill="#FAFCFD" opacity="1.000000" stroke="none" 
	d="
M208.698151,400.281647 
	C208.697922,398.021545 208.697922,396.229126 208.697922,394.418640 
	C213.033890,394.418640 216.805130,394.418640 220.911972,394.418640 
	C220.911972,412.806854 220.911972,430.925598 220.911972,449.747223 
	C240.039062,450.069092 258.669403,448.875336 277.833710,445.075470 
	C278.412079,448.195496 278.991547,451.321564 279.670197,454.982513 
	C256.170471,460.686646 232.631577,460.140198 208.698380,460.012970 
	C208.698380,440.035004 208.698380,420.392151 208.698151,400.281647 
z"/>
<path fill="#F3F6FA" opacity="1.000000" stroke="none" 
	d="
M96.219376,507.948151 
	C118.768959,508.471191 141.063766,508.560669 163.358582,508.645203 
	C166.671371,508.657776 169.984253,508.646942 173.618820,508.646942 
	C173.618820,512.028015 173.618820,515.088623 173.618820,518.516724 
	C143.763977,518.516724 113.900414,518.516724 83.641724,518.516724 
	C83.641724,504.458679 83.641724,490.413849 83.641724,476.080383 
	C87.588425,476.080383 91.494606,476.080383 95.964600,476.080383 
	C95.964600,486.653961 95.964600,497.083466 96.219376,507.948151 
z"/>
<path fill="#1D2D61" opacity="1.000000" stroke="none" 
	d="
M168.411957,484.784729 
	C168.123123,469.429260 168.123123,453.899078 168.123123,437.793945 
	C174.635880,437.793945 180.991257,437.793945 187.881897,437.793945 
	C187.881897,434.464142 187.881897,431.702209 187.946747,428.498962 
	C188.664078,429.905701 189.677948,431.711609 189.899536,433.609985 
	C190.503540,438.785004 189.124100,440.108368 183.954300,440.024109 
	C180.790741,439.972565 177.620224,440.118835 174.462936,439.966431 
	C170.039474,439.752869 169.270782,442.127014 169.435684,445.944244 
	C169.951874,457.894104 170.264099,469.853790 170.500656,481.812744 
	C170.518860,482.732971 169.329102,483.677094 168.411957,484.784729 
z"/>
<path fill="#1D2D61" opacity="1.000000" stroke="none" 
	d="
M186.824371,426.607788 
	C180.848038,426.972595 174.743057,426.972595 167.977997,426.972595 
	C167.977997,413.949921 167.977997,400.949738 168.045807,387.487549 
	C168.741577,388.966644 169.869583,390.897003 169.911819,392.850800 
	C170.105682,401.817322 169.944519,410.790771 170.014832,419.760956 
	C170.056046,425.018860 171.126419,425.593231 176.183701,425.302704 
	C179.658234,425.103149 183.189697,425.894531 186.824371,426.607788 
z"/>
<path fill="#1D2D61" opacity="1.000000" stroke="none" 
	d="
M154.775391,389.356201 
	C155.109222,409.335388 155.201538,429.637939 155.261581,449.940613 
	C155.296051,461.594910 155.278214,473.249329 155.291962,485.356384 
	C154.576782,484.748779 153.215805,483.682190 153.226227,482.629181 
	C153.377182,467.387909 153.816055,452.149475 153.972473,436.908203 
	C154.115540,422.966064 153.982101,409.021210 154.022827,395.077728 
	C154.028076,393.277893 154.346832,391.478943 154.775391,389.356201 
z"/>
<path fill="#1D2D61" opacity="1.000000" stroke="none" 
	d="
M166.770294,385.551544 
	C163.635925,385.897400 160.267563,385.944427 156.441223,385.942871 
	C159.314514,382.613983 162.912827,383.726501 166.770294,385.551544 
z"/>
<path fill="#1D2D61" opacity="1.000000" stroke="none" 
	d="
M157.167709,486.418457 
	C159.364731,486.113464 161.753952,486.068512 164.585052,486.105682 
	C162.727936,490.361908 160.021622,488.171783 157.167709,486.418457 
z"/>
<path fill="#484D97" opacity="1.000000" stroke="none" 
	d="
M237.100174,577.211365 
	C237.173447,578.605103 236.902710,579.925659 236.560822,581.673218 
	C236.578491,580.446228 236.667328,578.792236 237.100174,577.211365 
z"/>
<path fill="#484D97" opacity="1.000000" stroke="none" 
	d="
M236.701782,585.322144 
	C237.069458,586.801880 237.288422,588.581177 237.417694,590.732178 
	C237.069687,589.276428 236.811371,587.449097 236.701782,585.322144 
z"/>
<path fill="#484D97" opacity="1.000000" stroke="none" 
	d="
M237.670578,595.227051 
	C237.927338,595.747253 238.035629,596.498169 238.071442,597.624634 
	C237.840012,597.152710 237.681061,596.305237 237.670578,595.227051 
z"/>
<path fill="#FCFDFD" opacity="1.000000" stroke="none" 
	d="
M835.161255,585.810059 
	C857.266724,598.606262 857.725647,642.156433 828.818481,654.724915 
	C818.252136,659.319092 807.304321,661.461853 795.872498,661.519287 
	C787.752014,661.560120 779.631104,661.527222 771.213867,661.527222 
	C770.054504,673.042786 768.941345,684.099487 767.800659,695.429810 
	C755.228333,695.429810 742.792725,695.429810 729.803528,695.429810 
	C725.932007,656.372864 722.061951,617.330261 718.183899,578.206909 
	C718.727722,577.964050 719.145813,577.613220 719.562927,577.614502 
	C750.539246,577.710205 781.517212,577.686646 812.490540,578.055054 
	C820.568115,578.151184 828.145874,580.887024 835.161255,585.810059 
M788.876648,602.121521 
	C784.941528,602.121521 781.006409,602.121521 776.978149,602.121521 
	C775.883728,613.699402 774.825562,624.893250 773.772034,636.038696 
	C788.812073,638.571167 799.167236,633.684509 801.905396,623.132141 
	C804.578796,612.829285 800.400940,605.684448 788.876648,602.121521 
z"/>
<path fill="#484D97" opacity="1.000000" stroke="none" 
	d="
M629.400757,684.918213 
	C636.255615,666.077332 643.425598,647.140076 650.619934,628.212036 
	C650.709045,627.977600 651.110962,627.862122 651.928955,627.315430 
	C652.677490,636.479492 653.398621,645.308167 654.002136,654.586060 
	C648.870544,661.090210 643.821350,667.116455 638.855591,673.210693 
	C635.744751,677.028442 632.759399,680.948364 629.400757,684.918213 
z"/>
<path fill="#43489C" opacity="1.000000" stroke="none" 
	d="
M838.607788,405.404175 
	C838.521790,405.445740 838.351257,405.112030 838.454590,405.074768 
	C838.557983,405.037476 838.693726,405.362640 838.607788,405.404175 
z"/>
<path fill="#4B4E9B" opacity="1.000000" stroke="none" 
	d="
M438.196228,650.733887 
	C435.927765,650.734009 434.130890,650.734009 431.315216,650.734009 
	C436.296387,637.629150 440.999908,625.254822 446.179749,611.627258 
	C451.543182,625.203247 456.411621,637.526367 461.629456,650.733826 
	C453.424927,650.733826 446.046387,650.733826 438.196228,650.733887 
z"/>
<path fill="#4A4697" opacity="1.000000" stroke="none" 
	d="
M511.043091,471.681000 
	C509.632385,457.641083 509.065735,444.078003 512.984009,430.727753 
	C515.084412,423.571411 518.566528,420.264069 524.408813,419.987274 
	C530.270630,419.709503 534.605835,422.569244 537.023499,429.264130 
	C541.106506,440.570923 541.305298,452.389313 540.368774,464.192078 
	C539.964600,469.285400 538.871948,474.370819 537.611572,479.337921 
	C535.971680,485.800812 531.149292,490.005951 526.043457,490.084137 
	C519.655212,490.181976 514.915283,486.394501 512.833191,479.385040 
	C512.124695,476.999908 511.665497,474.540680 511.043091,471.681000 
z"/>
<path fill="#4D4695" opacity="1.000000" stroke="none" 
	d="
M670.849487,438.003815 
	C669.944885,453.077698 658.144897,456.270172 647.077209,454.761169 
	C646.267883,454.650787 645.128174,452.306274 645.210571,451.071716 
	C645.728638,443.306183 646.474731,435.552429 647.344177,427.817139 
	C647.486938,426.547699 648.316528,424.761871 649.332092,424.283508 
	C654.681152,421.763763 664.875183,424.623291 668.232483,429.782593 
	C669.680176,432.007385 670.010254,434.959503 670.849487,438.003815 
z"/>
<path fill="#1A2F75" opacity="1.000000" stroke="none" 
	d="
M286.856384,482.965515 
	C293.260345,485.029114 298.925934,487.566528 300.063416,494.702393 
	C301.015289,500.674042 297.574066,504.450348 292.651184,506.976562 
	C282.812134,512.025513 272.134064,512.445679 261.512543,511.438171 
	C255.181107,510.837585 248.874710,509.034027 242.791580,507.051636 
	C237.926376,505.466095 234.832703,501.768707 234.739136,496.220642 
	C234.644394,490.603088 237.885269,486.684265 242.596329,485.230316 
	C249.959335,482.957977 257.660614,481.061951 265.308167,480.643555 
	C272.297516,480.261200 279.405731,482.051392 286.856384,482.965515 
z"/>
<path fill="#1A2F75" opacity="1.000000" stroke="none" 
	d="
M121.834900,438.556702 
	C114.103630,455.030029 89.998795,455.540710 80.905312,441.921844 
	C75.176407,433.341919 75.866982,421.609497 82.478752,414.067535 
	C89.179924,406.423645 102.367119,404.191315 111.855904,409.094574 
	C120.864616,413.749786 125.393875,423.630981 123.186005,433.896790 
	C122.873428,435.350189 122.382042,436.765167 121.834900,438.556702 
z"/>
<path fill="#1C3075" opacity="1.000000" stroke="none" 
	d="
M789.298218,602.207336 
	C800.400940,605.684448 804.578796,612.829285 801.905396,623.132141 
	C799.167236,633.684509 788.812073,638.571167 773.772034,636.038696 
	C774.825562,624.893250 775.883728,613.699402 776.978149,602.121521 
	C781.006409,602.121521 784.941528,602.121521 789.298218,602.207336 
z"/>
</svg>